.
..............................Site Info...........................

 -   http://www.scenetime.com  *_*   

SceneTime is going to Close sign up on march/1, hurry up! get in before the doors are closed.

     We care to share . Join us on  http://www.scenetime.com 

    Be the first to get new release at  http://www.scenetime.com

        Seed back for speed


...................................NFO:.................................................[IMG]http://i.imgur.com/2mcr9.png[/IMG]

 
TITLE: 

The Adventures Of Tin Tin 2011 BRRiP AC3 XViD - INSPiRAL

IMDB: 
 
http://www.imdb.com/title/tt0983193/


SOURCES:

VIDEO - 1080p ULSHD THANKS
AUDIO - 1080P ULSHD THANKS
SUBS  - None Add

STATS:

Video
ID                               : 0
Format                           : MPEG-4 Visual
Format profile                   : Advanced Simple@L5
Format settings, BVOP            : 2
Format settings, QPel            : No
Format settings, GMC             : No warppoints
Format settings, Matrix          : Default (MPEG)
Muxing mode                      : Packed bitstream
Codec ID                         : XVID
Codec ID/Hint                    : XviD
Duration                         : 1h 46mn
Bit rate                         : 1 890 Kbps
Width                            : 720 pixels
Height                           : 304 pixels
Display aspect ratio             : 2.35:1
Frame rate                       : 23.976 fps
Color space                      : YUV
Chroma subsampling               : 4:2:0
Bit depth                        : 8 bits
Scan type                        : Progressive
Compression mode                 : Lossy
Bits/(Pixel*Frame)               : 0.360
Stream size                      : 1.41 GiB (81%)
Writing library                  : XviD 64

Audio
ID                               : 1
Format                           : AC-3
Format/Info                      : Audio Coding 3
Mode extension                   : CM (complete main)
Codec ID                         : 2000
Duration                         : 1h 46mn
Bit rate mode                    : Constant
Bit rate                         : 448 Kbps
Channel(s)                       : 6 channels
Channel positions                : Front: L C R, Side: L R, LFE
Sampling rate                    : 48.0 KHz
Bit depth                        : 16 bits
Compression mode                 : Lossy
Stream size                      : 342 MiB (19%)
Alignment                        : Aligned on interleaves
Interleave, duration             : 42 ms (1.00 video frame)
Interleave, preload duration     : 512 ms


NOTES:

Straight forward rip of the 1080p release,noting fancy done,no special filters ....just s decent good old
fashion rip ;-)
Audio converted to AC3 from DTS and then remuxed.


SCREENS:

[IMG]http://i.imgur.com/2wNPY.png[/IMG]
[IMG]http://i.imgur.com/uf7P6.png[/IMG]
[IMG]http://i.imgur.com/d1WXg.png[/IMG]
[IMG]http://i.imgur.com/yjxW4.png[/IMG]
[IMG]http://i.imgur.com/ag2gb.png[/IMG]


GREETZ: 

Past,Present and Future

[IMG]http://i.imgur.com/2mcr9.png[/IMG]